<?xml version="1.0" standalone="no"?>
<!DOCTYPE svg PUBLIC "-//W3C//DTD SVG 20010904//EN"
 "http://www.w3.org/TR/2001/REC-SVG-20010904/DTD/svg10.dtd">
<svg version="1.0" xmlns="http://www.w3.org/2000/svg"
 width="1000.000000pt" height="900.000000pt" viewBox="0 0 1000.000000 900.000000"
 preserveAspectRatio="xMidYMid meet">
<metadata>
Created by potrace 1.13, written by Peter Selinger 2001-2015
</metadata>
<g transform="translate(0.000000,900.000000) scale(0.100000,-0.100000)"

fill="param(fill)" stroke="param(outline)">
<path d="M5465 8981 c-67 -25 -136 -65 -165 -96 -13 -14 -28 -25 -34 -25 -11
-1 -58 -66 -94 -130 -10 -19 -22 -64 -26 -100 -4 -36 -20 -119 -36 -185 -16
-66 -39 -178 -50 -250 -11 -71 -32 -172 -45 -225 -13 -52 -62 -273 -109 -490
-46 -218 -94 -433 -106 -478 -11 -46 -34 -151 -49 -235 -16 -84 -56 -276 -90
-427 -33 -151 -103 -486 -156 -744 -52 -258 -96 -470 -98 -471 -7 -4 -3027
-118 -3031 -114 -2 2 -9 72 -15 154 -15 207 -38 438 -51 510 -5 33 -19 143
-30 245 -11 102 -24 219 -29 262 -6 55 -19 97 -45 152 -44 92 -139 197 -200
221 -22 9 -49 23 -58 32 -12 11 -52 16 -150 20 -174 8 -217 1 -268 -42 -22
-18 -55 -38 -73 -44 -30 -10 -74 -54 -134 -134 -37 -49 -71 -181 -88 -342 -9
-82 -25 -204 -35 -270 -11 -66 -31 -203 -45 -305 -14 -102 -36 -255 -50 -340
-13 -85 -31 -213 -40 -285 -9 -71 -23 -152 -30 -180 -42 -160 -47 -305 -14
-431 22 -85 43 -223 54 -344 4 -41 19 -147 35 -235 16 -88 34 -209 40 -270 12
-126 36 -277 55 -350 8 -27 18 -90 24 -140 18 -143 32 -226 48 -280 21 -74 72
-170 108 -207 49 -50 122 -108 136 -108 7 0 20 -7 30 -16 30 -27 89 -38 204
-39 105 0 180 13 214 39 19 15 50 32 94 53 20 10 39 25 42 34 3 8 18 29 34 45
16 17 40 50 53 74 13 25 32 57 41 71 12 18 19 55 23 115 2 49 11 145 19 214 8
69 20 188 25 265 6 77 15 174 20 215 5 41 19 194 31 340 11 146 22 266 22 266
6 5 2978 -114 2983 -118 8 -8 194 -776 240 -988 19 -91 44 -199 54 -241 11
-41 29 -125 40 -185 12 -60 32 -145 45 -189 13 -44 33 -129 45 -188 11 -60 24
-116 29 -125 5 -9 21 -82 36 -162 15 -80 58 -273 96 -430 140 -580 158 -656
167 -700 31 -145 100 -378 129 -434 32 -61 104 -125 191 -168 l86 -43 171 -3
c140 -4 177 -1 209 12 21 9 47 16 58 16 11 0 37 13 58 30 21 16 43 30 49 30
26 0 114 97 153 168 35 64 43 89 49 156 4 45 15 122 24 171 10 50 21 113 25
140 11 69 65 332 89 435 11 47 23 112 26 145 4 33 24 150 45 260 81 412 129
673 140 755 6 47 19 123 30 170 10 47 26 128 35 180 8 52 29 156 45 230 16 74
62 315 100 535 39 220 73 408 76 417 5 16 83 18 1202 22 658 2 1242 8 1297 13
128 12 220 41 320 101 108 64 165 126 227 247 l52 100 4 151 c4 147 3 152 -25
225 -54 137 -155 267 -257 327 -30 19 -99 47 -153 63 l-98 30 -1292 -1 -1291
-1 -6 28 c-3 15 -42 231 -86 478 -125 706 -128 723 -155 850 -13 66 -32 170
-40 230 -9 61 -23 140 -30 176 -32 153 -127 669 -145 791 -11 73 -27 158 -35
188 -16 58 -44 209 -101 535 -35 208 -65 301 -126 391 -40 60 -152 146 -230
177 -63 26 -75 27 -240 27 -143 -1 -182 -4 -223 -19z"/>
</g>
</svg>
