<?xml version="1.0" standalone="no"?>
<!DOCTYPE svg PUBLIC "-//W3C//DTD SVG 20010904//EN"
 "http://www.w3.org/TR/2001/REC-SVG-20010904/DTD/svg10.dtd">
<svg version="1.0" xmlns="http://www.w3.org/2000/svg"
 width="1000.000000pt" height="868.000000pt" viewBox="0 0 1000.000000 868.000000"
 preserveAspectRatio="xMidYMid meet">
<metadata>
Created by potrace 1.13, written by Peter Selinger 2001-2015
</metadata>
<g transform="translate(0.000000,868.000000) scale(0.100000,-0.100000)"
fill="param(fill)" stroke="param(outline)">
<path d="M3227 8666 c-73 -26 -177 -119 -177 -158 0 -8 -5 -19 -11 -25 -15
-15 -39 -112 -39 -163 0 -50 13 -108 37 -159 8 -18 34 -83 58 -145 24 -61 61
-156 84 -211 22 -55 74 -183 114 -285 105 -262 173 -433 273 -680 47 -118 95
-244 105 -280 27 -89 142 -660 244 -1211 47 -251 85 -460 85 -463 0 -3 -532
-6 -1182 -6 l-1182 0 -53 58 c-30 31 -88 104 -130 162 -281 387 -386 523 -463
598 -82 81 -135 111 -192 112 -54 0 -71 -20 -108 -130 -21 -62 -22 -87 -27
-522 l-6 -457 -201 -3 c-183 -3 -206 -5 -259 -27 -50 -20 -66 -33 -108 -90
-53 -71 -89 -168 -89 -239 0 -52 45 -185 79 -233 14 -20 37 -44 51 -52 14 -9
32 -21 40 -26 65 -42 82 -45 286 -49 l201 -4 6 -456 c5 -452 6 -458 30 -528
33 -94 46 -113 84 -120 101 -19 206 79 500 471 49 66 103 140 119 165 48 76
185 254 213 277 l26 23 1173 0 c644 0 1172 -2 1172 -5 0 -32 -196 -1140 -246
-1388 -65 -327 -65 -327 -139 -500 -40 -96 -87 -213 -105 -262 -17 -49 -78
-204 -136 -344 -58 -141 -135 -328 -171 -416 -36 -88 -82 -200 -103 -250 -56
-134 -71 -183 -77 -255 -12 -150 80 -311 211 -365 88 -37 209 -28 286 21 59
37 90 74 309 374 72 99 149 201 207 274 58 73 193 249 234 304 19 26 194 260
389 520 l354 472 696 0 c383 0 710 4 726 9 134 38 223 147 247 299 18 119 -23
243 -112 330 -87 86 -85 85 -573 92 l-427 5 332 442 333 443 1435 0 c789 0
1516 5 1615 10 184 9 296 30 333 63 9 8 40 26 68 40 60 30 191 166 243 252 71
117 109 383 77 534 -18 85 -78 214 -133 286 -51 66 -164 160 -237 197 -32 16
-97 39 -145 50 -85 21 -101 22 -1673 27 l-1587 6 -331 443 c-181 243 -330 445
-330 448 0 2 198 4 439 4 421 -1 441 0 479 19 136 69 222 251 193 408 -21 112
-87 210 -171 253 -97 49 -109 50 -830 50 l-675 0 -14 23 c-8 12 -134 181 -280
376 -146 194 -301 401 -344 460 -95 129 -162 217 -288 376 -53 67 -127 164
-164 216 -291 402 -374 496 -461 518 -58 15 -161 13 -207 -3z"/>
</g>
</svg>
