<?xml version="1.0" standalone="no"?>
<!DOCTYPE svg PUBLIC "-//W3C//DTD SVG 20010904//EN"
 "http://www.w3.org/TR/2001/REC-SVG-20010904/DTD/svg10.dtd">
<svg version="1.0" xmlns="http://www.w3.org/2000/svg"
 width="1000.000000pt" height="952.000000pt" viewBox="0 0 1000.000000 952.000000"
 preserveAspectRatio="xMidYMid meet">
<metadata>
Created by potrace 1.13, written by Peter Selinger 2001-2015
</metadata>
<g transform="translate(0.000000,952.000000) scale(0.100000,-0.100000)"
fill="param(fill)" stroke="param(outline)">
<path d="M4459 7777 l-554 -1742 -1951 -5 -1951 -5 1524 -1150 c839 -632 1537
-1161 1553 -1175 l28 -25 -584 -1814 c-322 -997 -583 -1816 -580 -1818 2 -2
686 500 1521 1117 834 617 1522 1119 1528 1116 7 -2 691 -515 1522 -1140 830
-624 1511 -1133 1513 -1132 1 2 -261 837 -583 1857 -445 1406 -583 1855 -573
1860 27 15 445 323 1766 1299 l1359 1005 -1935 5 -1935 5 -554 1739 c-304 957
-555 1741 -556 1743 -2 1 -253 -782 -558 -1740z m666 -1882 c115 -8 248 -36
403 -86 406 -128 811 -514 962 -915 93 -247 127 -449 117 -685 -11 -244 -86
-518 -191 -703 -121 -211 -228 -339 -412 -492 -550 -455 -1391 -472 -1974 -41
-202 149 -316 276 -448 497 -153 258 -236 610 -212 907 27 343 125 611 316
868 182 244 414 423 696 536 192 77 474 134 608 123 25 -2 86 -6 135 -9z"/>
</g>
</svg>
