<?xml version="1.0" standalone="no"?>
<!DOCTYPE svg PUBLIC "-//W3C//DTD SVG 20010904//EN"
 "http://www.w3.org/TR/2001/REC-SVG-20010904/DTD/svg10.dtd">
<svg version="1.0" xmlns="http://www.w3.org/2000/svg"
 width="1000.000000pt" height="628.000000pt" viewBox="0 0 1000.000000 628.000000"
 preserveAspectRatio="xMidYMid meet">
<metadata>
Created by potrace 1.13, written by Peter Selinger 2001-2015
</metadata>
<g transform="translate(0.000000,628.000000) scale(0.100000,-0.100000)"
fill="param(fill)" stroke="param(outline)">
<path d="M955 6266 c-163 -28 -370 -120 -501 -222 -277 -215 -433 -513 -450
-859 -11 -214 21 -364 124 -587 92 -200 336 -430 551 -523 102 -43 248 -83
336 -90 39 -3 85 -8 103 -11 l32 -5 0 -1984 0 -1985 1030 0 1030 0 0 1540 0
1540 1790 0 1790 0 0 -1540 0 -1540 1030 0 1030 0 0 1983 0 1984 113 12 c201
22 441 117 582 230 93 74 198 187 266 286 189 274 242 682 129 995 -56 155
-102 244 -175 336 -220 278 -515 432 -860 450 -213 11 -372 -22 -590 -125
-203 -95 -423 -328 -520 -550 -45 -101 -95 -290 -95 -357 0 -21 -3 -56 -6 -76
l-7 -38 -2686 0 -2687 0 -13 123 c-15 134 -42 224 -117 390 -52 115 -132 220
-242 323 -223 206 -455 300 -761 309 -97 3 -173 0 -226 -9z"/>
</g>
</svg>
