<?xml version="1.0" standalone="no"?>
<!DOCTYPE svg PUBLIC "-//W3C//DTD SVG 20010904//EN"
 "http://www.w3.org/TR/2001/REC-SVG-20010904/DTD/svg10.dtd">
<svg version="1.0" xmlns="http://www.w3.org/2000/svg"
 width="1000.000000pt" height="1001.000000pt" viewBox="0 0 1000.000000 1001.000000"
 preserveAspectRatio="xMidYMid meet">
<metadata>
Created by potrace 1.13, written by Peter Selinger 2001-2015
</metadata>
<g transform="translate(0.000000,1001.000000) scale(0.100000,-0.100000)"
fill="param(fill)" stroke="param(outline)">
<path d="M3580 8210 l0 -1800 -1790 0 -1790 0 0 -1405 0 -1405 1790 0 1790 0
0 -1800 0 -1800 1405 0 1405 0 0 1800 0 1800 1806 0 1806 0 -6 1263 c-4 694
-9 1326 -12 1405 l-6 142 -1794 0 -1794 0 0 1800 0 1800 -1405 0 -1405 0 0
-1800z"/>
</g>
</svg>
